<svg width="130" height="170" viewBox="0 0 130 170" fill="none" xmlns="http://www.w3.org/2000/svg">
<path d="M65 0C60.6902 0 56.557 1.70578 53.5095 4.74208C50.4621 7.77838 48.75 11.8965 48.75 16.1905C48.75 25.1762 55.9813 32.381 65 32.381C74.0188 32.381 81.25 25.1762 81.25 16.1905C81.25 11.8965 79.5379 7.77838 76.4905 4.74208C73.443 1.70578 69.3098 0 65 0ZM48.75 40.4762C46.5563 40.4762 44.6875 41.3667 43.1438 42.7429H43.0625L0 85.7286L11.5375 97.1429L40.625 68.0809L40.625 170H56.875L56.875 113.333L73.125 113.333V170H89.375V68.0809L118.463 97.1429L130 85.7286L86.9375 42.7429C85.3125 41.3667 83.4437 40.4762 81.25 40.4762" fill="#557E00"/>
</svg>
