<svg width="25" height="18" viewBox="0 0 25 18" fill="none" xmlns="http://www.w3.org/2000/svg">
<path d="M0.0170407 1.50119C-0.00195171 0.949234 0.447715 0.5 1 0.5H4.27108C4.82337 0.5 5.2696 0.947755 5.29837 1.49929C5.45935 4.58536 6.37121 9.39688 9.04495 11.2151C9.59497 11.5891 10.241 11.1172 10.241 10.4521V1.5C10.241 0.947716 10.6887 0.5 11.241 0.5H13.3072C13.8595 0.5 14.3072 0.947715 14.3072 1.5V5.95214C14.3072 6.63245 14.9664 7.09254 15.556 6.75317C17.0928 5.86857 19.1886 4.08604 20.5184 1.13082C20.6874 0.755144 21.0543 0.5 21.4663 0.5H23.6587C24.3277 0.5 24.7996 1.14245 24.5393 1.75881C23.8133 3.47813 22.4401 5.89665 20.3765 7.74242C19.7693 8.28553 19.8504 9.41414 20.5036 9.90103C22.0786 11.0751 23.9434 13.1731 24.7599 16.349C24.9133 16.9456 24.4412 17.5 23.8252 17.5H21.447C21.0447 17.5 20.6847 17.2578 20.5051 16.8978C19.6194 15.1229 17.7507 12.4849 15.2982 11.8986C14.761 11.7702 14.3072 12.2281 14.3072 12.7804V16.5C14.3072 17.0523 13.8595 17.5 13.3072 17.5H10.3558C10.2795 17.5 10.206 17.4922 10.132 17.4737C6.78547 16.6351 0.389778 12.3337 0.0170407 1.50119Z" fill="url(#paint0_linear_34_14)"/>
<defs>
<linearGradient id="paint0_linear_34_14" x1="12.5" y1="0.5" x2="12.5" y2="17.5" gradientUnits="userSpaceOnUse">
<stop stop-color="#4FBBF9"/>
<stop offset="1" stop-color="#2797D6"/>
</linearGradient>
</defs>
</svg>
