<svg width="131" height="171" viewBox="0 0 131 171" fill="none" xmlns="http://www.w3.org/2000/svg">
<path d="M65.5 0.5C61.1902 0.5 57.057 2.20578 54.0095 5.24208C50.9621 8.27838 49.25 12.3965 49.25 16.6905C49.25 25.6762 56.4813 32.881 65.5 32.881C74.5188 32.881 81.75 25.6762 81.75 16.6905C81.75 12.3965 80.0379 8.27838 76.9905 5.24208C73.943 2.20578 69.8098 0.5 65.5 0.5ZM49.25 40.9762C47.0563 40.9762 45.1875 41.8667 43.6438 43.2429H43.5625L0.5 86.2286L12.0375 97.6429L41.125 68.5809L41.125 170.5H57.375L57.375 113.833L73.625 113.833V170.5H89.875V68.5809L118.963 97.6429L130.5 86.2286L87.4375 43.2429C85.8125 41.8667 83.9437 40.9762 81.75 40.9762" fill="#9B0000"/>
</svg>
